<svg width="25" height="24" viewBox="0 0 25 24" fill="none" xmlns="http://www.w3.org/2000/svg">
<path d="M8.79492 12.1176C8.79492 11.3461 9.33902 10.8318 9.89737 10.8318C10.4657 10.8318 11.0126 11.3562 10.9998 12.106V12.1176C10.9998 12.8905 10.4543 13.4033 9.89737 13.4033C9.35327 13.4033 8.79492 12.8847 8.79492 12.1176Z" fill="white"/>
<path d="M15.4718 12.1175C15.4718 11.7101 15.5943 11.4241 15.7481 11.2521C15.8362 11.1572 15.9436 11.0828 16.0629 11.0341C16.1822 10.9855 16.3105 10.9637 16.4389 10.9704C16.9958 10.9704 17.5414 11.4833 17.5414 12.2562C17.5414 13.0277 16.9958 13.542 16.4389 13.542C16.211 13.542 15.9888 13.4293 15.798 13.1736C15.5817 12.866 15.4675 12.4967 15.4718 12.119V12.1175Z" fill="white"/>
<path fill-rule="evenodd" clip-rule="evenodd" d="M7.91252 18.4958C8.30706 18.6518 8.74291 18.8093 9.22007 18.9538C8.37971 19.8379 7.07785 21.0775 7.07785 21.0775C3.03555 20.9475 2.5 17.5885 2.5 17.5885C2.5 11.6162 5.13504 4.45049 5.13504 4.45049C7.76724 2.44669 10.2727 2.50015 10.2727 2.50015L10.5048 4.08353C9.29129 4.41148 8.04641 4.9518 6.71179 5.69148L7.44249 7.04949C9.64453 5.83161 11.4378 5.26385 13.1855 5.2624C14.9317 5.2624 16.7221 5.82728 18.9185 7.04949L19.652 5.69148C18.2519 4.91279 16.9514 4.35514 15.6809 4.03441L16.0897 2.50015C16.0897 2.50015 18.5965 2.44525 21.2302 4.44904C21.2302 4.44904 23.8638 11.6133 23.8638 17.5871C23.8638 17.5871 23.3282 20.946 19.2859 21.076C19.2859 21.076 18.0695 19.8596 17.2662 18.9827C17.6878 18.8527 18.1151 18.6937 18.5481 18.5117C19.3363 18.2087 20.0884 17.8167 20.79 17.3429L19.9497 16.0499C19.2489 16.5195 18.5866 16.8445 18.0012 17.0656L17.9912 17.0699L17.9841 17.0728L17.9698 17.0786C17.1729 17.424 16.3394 17.6751 15.4858 17.8269L15.473 17.8284C14.0001 18.1033 12.4897 18.0974 11.019 17.811C10.1468 17.6375 9.29193 17.3837 8.46517 17.0526C7.7473 16.768 7.1334 16.466 6.53945 16.0442L5.6649 17.3126C6.39132 17.8284 7.12343 18.1823 7.90967 18.4944L7.91252 18.4958ZM9.89806 9.28444C8.36973 9.28444 7.26871 10.628 7.26871 12.1175C7.26871 13.6142 8.39395 14.952 9.89806 14.952C11.4235 14.952 12.5231 13.6127 12.526 12.1247C12.5473 10.6136 11.4121 9.28444 9.89806 9.28444ZM16.4387 9.42313C15.7165 9.42313 15.0727 9.70195 14.6155 10.2134C14.1668 10.719 13.9461 11.3951 13.9461 12.1175C13.9461 12.8398 14.1683 13.555 14.5813 14.1083C14.9986 14.6688 15.641 15.0907 16.4387 15.0907C17.967 15.0907 19.0666 13.7471 19.0666 12.2562C19.0666 10.7652 17.967 9.42313 16.4387 9.42313Z" fill="white"/>
</svg>
