<svg width="178" height="198" viewBox="0 0 178 198" fill="none" xmlns="http://www.w3.org/2000/svg">
<path d="M88.6983 38.0338L58.9899 58.3849L89.8249 79.5187L75.1783 89.552L16.5918 49.3953L88.6983 0L160.817 49.3953L133.053 68.4181L88.6983 38.0338Z" fill="#FBB03B"/>
<path d="M160.817 148.186L88.6983 197.581L16.5918 148.186L44.3433 129.163H44.3552L88.6983 159.547L118.264 139.291L86.6703 117.647L101.436 107.531L160.817 148.186Z" fill="#ED1E79"/>
<path d="M133.053 68.4182L88.6983 98.8025L75.1784 89.552L89.825 79.5188L58.99 58.3849L88.6983 38.0338L133.053 68.4182Z" fill="#FCE5E9"/>
<path d="M118.264 139.291L88.6976 159.547L44.3545 129.163L88.6976 98.8024L101.435 107.531L86.6696 117.647L118.264 139.291Z" fill="#F0B5F0"/>
<path d="M75.1781 89.5519L88.6981 98.8024L44.355 129.163H44.3431L0 98.8024L29.566 78.5343L60.401 99.6681L75.1781 89.5519Z" fill="#29ABE2"/>
<path d="M177.408 98.8024L147.687 119.142L116.082 97.4979L101.435 107.531L88.6978 98.8024L133.053 68.4181L177.408 98.8024Z" fill="#29ABE2"/>
</svg>
