<svg width="175" height="60" viewBox="0 0 175 60" fill="none" xmlns="http://www.w3.org/2000/svg">
<path d="M26.8707 11.5222L17.8707 17.6874L27.212 24.0898L22.7749 27.1293L5.02637 14.9641L26.8707 0L48.7186 14.9641L40.3078 20.7269L26.8707 11.5222Z" fill="#FBB03B"/>
<path d="M48.7186 44.8921L26.8707 59.8562L5.02637 44.8921L13.4336 39.1292H13.4371L26.8707 48.334L35.8276 42.1975L26.2563 35.6406L30.7294 32.5759L48.7186 44.8921Z" fill="#ED1E79"/>
<path d="M40.3082 20.727L26.8711 29.9318L22.7753 27.1294L27.2124 24.0899L17.8711 17.6875L26.8711 11.5222L40.3082 20.727Z" fill="#FCE5E9"/>
<path d="M35.8279 42.1975L26.871 48.334L13.4375 39.1292L26.871 29.9316L30.7297 32.576L26.2567 35.6406L35.8279 42.1975Z" fill="#F0B5F0"/>
<path d="M22.7749 27.1292L26.8707 29.9316L13.4371 39.1292H13.4335L0 29.9316L8.95689 23.7915L18.2982 30.1939L22.7749 27.1292Z" fill="#29ABE2"/>
<path d="M53.7453 29.9318L44.7418 36.0935L35.1669 29.5366L30.7298 32.5762L26.8711 29.9318L40.3082 20.7271L53.7453 29.9318Z" fill="#29ABE2"/>
<path d="M59.7663 22.1102V21.5281L62.2992 21.115V0.99521L59.7663 0.607186V0H67.8609V0.607186L65.328 0.99521V21.4455H73.5591L75.8154 15.3665H76.5591V22.1102H59.7627H59.7663Z" fill="black"/>
<path d="M82.5301 22.3869C81.3553 22.3869 80.3924 22.0815 79.6379 21.4743C78.887 20.8492 78.5098 19.9258 78.5098 18.7115C78.5098 16.9797 79.2355 15.7546 80.6834 15.036C82.1349 14.2995 83.8128 13.9294 85.7205 13.9294H87.5637V11.8025C87.5637 10.8432 87.4523 10.1067 87.2331 9.5929C87.0319 9.05757 86.7086 8.6911 86.2702 8.48631C85.8283 8.26355 85.2319 8.15577 84.481 8.15577C83.6187 8.15577 82.9756 8.33182 82.5553 8.68032C82.1313 9.01086 81.9229 9.46355 81.9229 10.0348C81.9229 10.5701 82.1816 10.9186 82.6954 11.0839C82.6954 11.5438 82.5193 11.9498 82.1708 12.2983C81.8223 12.6468 81.4092 12.8228 80.9313 12.8228C80.4175 12.8228 80.0044 12.6863 79.6918 12.4097C79.3792 12.1151 79.2247 11.6731 79.2247 11.0839C79.2247 10.0168 79.7565 9.15817 80.8199 8.51505C81.8834 7.87194 83.2164 7.54858 84.8116 7.54858C88.4834 7.54858 90.3193 9.15098 90.3193 12.3558V20.26C90.3193 20.6659 90.402 20.9785 90.5673 21.2013C90.7505 21.4025 91.0092 21.5067 91.3397 21.5067C91.6523 21.5067 91.9002 21.4061 92.0834 21.2013C92.2666 20.9785 92.3601 20.6839 92.3601 20.3174H92.9385C92.9385 20.9606 92.7265 21.4707 92.3062 21.8372C91.9038 22.2073 91.3325 22.3905 90.5996 22.3905C89.7553 22.3905 89.0403 22.1498 88.4511 21.6719C87.8834 21.1761 87.5888 20.4109 87.5708 19.3797C87.1289 20.321 86.4499 21.0576 85.5337 21.5893C84.6355 22.1246 83.6331 22.3905 82.5337 22.3905L82.5301 22.3869ZM84.0463 21.1725C84.5421 21.1725 85.0451 21.0252 85.5625 20.7306C86.0942 20.436 86.5433 20.0121 86.9134 19.4588C87.2798 18.8875 87.499 18.2049 87.5744 17.4145V14.5402H85.7313C84.2259 14.5402 83.0978 14.8815 82.3433 15.5642C81.6104 16.2288 81.2403 17.1665 81.2403 18.3845C81.2403 19.3977 81.4774 20.1162 81.9553 20.5402C82.4331 20.9642 83.1301 21.1761 84.0463 21.1761V21.1725Z" fill="black"/>
<path d="M95.2818 30.1797C94.3261 30.1797 93.5572 29.939 92.968 29.4611C92.3824 28.9833 92.0877 28.3366 92.0877 27.5282C92.0877 26.9749 92.2422 26.5258 92.5548 26.1737C92.8853 25.8432 93.2877 25.6779 93.7656 25.6779C94.1141 25.6779 94.4267 25.7533 94.7033 25.9006C94.98 26.0479 95.1991 26.2707 95.3644 26.5653C95.0877 26.9533 94.9512 27.3593 94.9512 27.7797C94.9512 28.1497 95.0698 28.4515 95.3105 28.6923C95.5476 28.933 95.853 29.0515 96.2195 29.0515C96.6614 29.0515 97.035 28.9042 97.3476 28.6096C97.6782 28.315 97.9728 27.7976 98.2279 27.0611L99.8806 22.3078L93.4925 8.65514L91.6494 8.37849V7.8252H98.5045V8.37849L96.5788 8.70903L101.178 18.5749L104.454 9.06831L102.087 8.37849V7.8252H107.041V8.37849L105.169 9.06831L99.0003 27.0611C98.6159 28.1497 98.1452 28.9402 97.5955 29.4396C97.0638 29.9354 96.2913 30.1869 95.2818 30.1869V30.1797Z" fill="black"/>
<path d="M113.957 22.3868C112.599 22.3868 111.37 22.0814 110.267 21.4742C109.164 20.849 108.294 19.9724 107.651 18.8478C107.008 17.7233 106.688 16.4263 106.688 14.9496C106.688 13.473 107.001 12.1868 107.626 11.0802C108.269 9.95563 109.121 9.08976 110.188 8.48258C111.269 7.85743 112.473 7.54126 113.795 7.54126C114.952 7.54126 115.99 7.79994 116.906 8.31371C117.823 8.83108 118.541 9.54964 119.055 10.4694C119.569 11.3712 119.835 12.4131 119.853 13.5916H109.721V16.3293C109.721 17.9496 110.08 19.2682 110.795 20.2814C111.528 21.2766 112.584 21.7724 113.96 21.7724C115.229 21.7724 116.346 21.4131 117.32 20.6946C118.293 19.976 118.89 19.0455 119.109 17.9029H119.741C119.486 19.2646 118.832 20.3532 117.787 21.1652C116.741 21.9772 115.466 22.3796 113.96 22.3796L113.957 22.3868ZM116.82 12.9089C116.82 11.3065 116.572 10.1173 116.076 9.34485C115.581 8.55084 114.808 8.15563 113.763 8.15563C112.534 8.15563 111.578 8.59036 110.899 9.45623C110.22 10.3221 109.836 11.4754 109.742 12.9125H116.82V12.9089Z" fill="black"/>
<path d="M121.107 21.5568L123.033 21.2802V8.6227L121.107 8.34605V7.79276H125.788V9.9197C126.945 8.33527 128.249 7.54126 129.697 7.54126C130.394 7.54126 131.009 7.72449 131.54 8.09455C132.072 8.44306 132.338 8.94964 132.338 9.61431C132.338 10.0922 132.183 10.4981 131.871 10.8287C131.558 11.1413 131.145 11.2993 130.631 11.2993C130.046 11.2993 129.568 11.0694 129.198 10.6095C129.399 10.3508 129.5 10.0742 129.5 9.77958C129.5 9.46701 129.388 9.2191 129.169 9.03228C128.968 8.83108 128.691 8.72689 128.343 8.72689C127.958 8.72689 127.563 8.91012 127.157 9.28018C126.755 9.62868 126.295 10.182 125.781 10.9401V21.2766L127.983 21.5532V22.1065H121.1V21.5532L121.107 21.5568Z" fill="black"/>
<path d="M90.6647 59.9999L100.926 27.6646H112.153L122.281 59.9999H112.721L106.8 37.9184H106.186L100.308 59.9999H90.6611H90.6647Z" fill="black"/>
<path d="M59.7666 59.8562V27.6646H69.2876V38.8562H78.7618V27.6646H88.3259V59.8562H78.7618V48.3879H69.2876V59.8562H59.7666Z" fill="black"/>
<path fill-rule="evenodd" clip-rule="evenodd" d="M174.144 27.6646H162.97L153.729 43.5735L153.78 43.6634L153.729 43.7532L162.97 59.9999H174.144L164.601 44.1484L174.144 27.6681V27.6646Z" fill="black"/>
<path d="M156.044 27.6646H146.479V59.8562H156.044V27.6646Z" fill="black"/>
<path d="M130.487 43.8322C130.487 48.061 133.854 51.4921 138.011 51.4921H142.401V59.9999H138.011C129.323 59.9999 122.281 52.7604 122.281 43.8322C122.281 34.9041 129.323 27.6646 138.011 27.6646H142.401V36.1723H138.011C133.854 36.1723 130.487 39.6035 130.487 43.8322Z" fill="black"/>
</svg>
